<?xml version="1.0" encoding="UTF-8"?>
<!-- Generated by SVGo (float) -->
<svg width="92.00" height="106.00" xmlns="http://www.w3.org/2000/svg" xmlns:xlink="http://www.w3.org/1999/xlink">
<text x="27.00" y="5.50" style="font-size: 10px;alignment-baseline: central; fill: #aaa;">Mar</text>
<rect x="27.00" y="69.00" width="11.00" height="11.00" rx="2.00" ry="2.00" style="fill:#fbdfdb"/>
<rect x="27.00" y="82.00" width="11.00" height="11.00" rx="2.00" ry="2.00" style="fill:#ffffff"/>
<rect x="27.00" y="95.00" width="11.00" height="11.00" rx="2.00" ry="2.00" style="fill:#ffffff"/>
<rect x="40.00" y="17.00" width="11.00" height="11.00" rx="2.00" ry="2.00" style="fill:#ffffff"/>
<rect x="40.00" y="30.00" width="11.00" height="11.00" rx="2.00" ry="2.00" style="fill:#ffffff"/>
<rect x="40.00" y="43.00" width="11.00" height="11.00" rx="2.00" ry="2.00" style="fill:#ffffff"/>
<rect x="40.00" y="56.00" width="11.00" height="11.00" rx="2.00" ry="2.00" style="fill:#ffffff"/>
<rect x="40.00" y="69.00" width="11.00" height="11.00" rx="2.00" ry="2.00" style="fill:#ffffff"/>
<rect x="40.00" y="82.00" width="11.00" height="11.00" rx="2.00" ry="2.00" style="fill:#ffffff"/>
<rect x="40.00" y="95.00" width="11.00" height="11.00" rx="2.00" ry="2.00" style="fill:#f9cfc9"/>
<rect x="53.00" y="17.00" width="11.00" height="11.00" rx="2.00" ry="2.00" style="fill:#ffffff"/>
<rect x="53.00" y="30.00" width="11.00" height="11.00" rx="2.00" ry="2.00" style="fill:#ffffff"/>
<rect x="53.00" y="43.00" width="11.00" height="11.00" rx="2.00" ry="2.00" style="fill:#ffffff"/>
<rect x="53.00" y="56.00" width="11.00" height="11.00" rx="2.00" ry="2.00" style="fill:#ffffff"/>
<rect x="53.00" y="69.00" width="11.00" height="11.00" rx="2.00" ry="2.00" style="fill:#fbdfdb"/>
<rect x="53.00" y="82.00" width="11.00" height="11.00" rx="2.00" ry="2.00" style="fill:#ffffff"/>
<rect x="53.00" y="95.00" width="11.00" height="11.00" rx="2.00" ry="2.00" style="fill:#ffffff"/>
<rect x="66.00" y="17.00" width="11.00" height="11.00" rx="2.00" ry="2.00" style="fill:#ffffff"/>
<rect x="66.00" y="30.00" width="11.00" height="11.00" rx="2.00" ry="2.00" style="fill:#ffffff"/>
<rect x="66.00" y="43.00" width="11.00" height="11.00" rx="2.00" ry="2.00" style="fill:#f18f81"/>
<rect x="66.00" y="56.00" width="11.00" height="11.00" rx="2.00" ry="2.00" style="fill:#ef7f6f"/>
<rect x="66.00" y="69.00" width="11.00" height="11.00" rx="2.00" ry="2.00" style="fill:#ef7f6f"/>
<rect x="66.00" y="82.00" width="11.00" height="11.00" rx="2.00" ry="2.00" style="fill:#ed6f5d"/>
<rect x="66.00" y="95.00" width="11.00" height="11.00" rx="2.00" ry="2.00" style="fill:#f39f93"/>
<rect x="79.00" y="17.00" width="11.00" height="11.00" rx="2.00" ry="2.00" style="fill:#f8c7c0"/>
<rect x="79.00" y="30.00" width="11.00" height="11.00" rx="2.00" ry="2.00" style="fill:#ef7f6f"/>
<rect x="79.00" y="43.00" width="11.00" height="11.00" rx="2.00" ry="2.00" style="fill:#ef7f6f"/>
<rect x="79.00" y="56.00" width="11.00" height="11.00" rx="2.00" ry="2.00" style="fill:#f18f81"/>
<rect x="79.00" y="69.00" width="11.00" height="11.00" rx="2.00" ry="2.00" style="fill:#ed6f5d"/>
<rect x="79.00" y="82.00" width="11.00" height="11.00" rx="2.00" ry="2.00" style="fill:#ef7f6f"/>
<rect x="79.00" y="95.00" width="11.00" height="11.00" rx="2.00" ry="2.00" style="fill:#ee7766"/>
<text x="0.00" y="22.50" style="font-size: 9px; fill:#aaa"/>
<text x="0.00" y="35.50" style="font-size: 9px; fill:#aaa">Mon</text>
<text x="0.00" y="48.50" style="font-size: 9px; fill:#aaa"/>
<text x="0.00" y="61.50" style="font-size: 9px; fill:#aaa">Wed</text>
<text x="0.00" y="74.50" style="font-size: 9px; fill:#aaa"/>
<text x="0.00" y="87.50" style="font-size: 9px; fill:#aaa">Fri</text>
<text x="0.00" y="100.50" style="font-size: 9px; fill:#aaa"/>
</svg>